<svg width="34" height="35" viewBox="0 0 34 35" fill="none" xmlns="http://www.w3.org/2000/svg">
<path d="M22.25 17.3728C22.25 18.7651 21.6968 20.1005 20.7123 21.0851C19.7277 22.0696 18.3923 22.6228 17 22.6228C15.6076 22.6228 14.2722 22.0696 13.2876 21.0851C12.3031 20.1005 11.75 18.7651 11.75 17.3728C11.75 17.0735 11.7815 16.7813 11.8357 16.4978H9.99995V23.4925C9.99995 23.979 10.3937 24.3728 10.8802 24.3728H23.1215C23.3546 24.3723 23.5781 24.2793 23.7428 24.1143C23.9075 23.9493 24 23.7257 24 23.4925V16.4978H22.1642C22.2185 16.7813 22.25 17.0735 22.25 17.3728ZM17 20.8728C17.4597 20.8726 17.9149 20.782 18.3396 20.6059C18.7643 20.4299 19.1502 20.1719 19.4752 19.8468C19.8002 19.5216 20.058 19.1356 20.2338 18.7108C20.4096 18.286 20.5001 17.8307 20.5 17.371C20.4998 16.9113 20.4092 16.456 20.2331 16.0313C20.0571 15.6066 19.7991 15.2208 19.474 14.8958C19.1488 14.5708 18.7628 14.313 18.338 14.1372C17.9132 13.9613 17.4579 13.8709 16.9982 13.871C16.0697 13.8712 15.1793 14.2403 14.523 14.897C13.8666 15.5537 13.498 16.4443 13.4982 17.3728C13.4984 18.3012 13.8675 19.1916 14.5242 19.848C15.1809 20.5044 16.0715 20.873 17 20.8728ZM21.2 13.6978H23.2982C23.4376 13.6978 23.5713 13.6425 23.6701 13.5441C23.7688 13.4457 23.8245 13.3122 23.825 13.1728V11.0745C23.825 10.9348 23.7695 10.8008 23.6707 10.702C23.5719 10.6033 23.4379 10.5478 23.2982 10.5478H21.2C21.0603 10.5478 20.9263 10.6033 20.8275 10.702C20.7287 10.8008 20.6732 10.9348 20.6732 11.0745V13.1728C20.675 13.4615 20.9112 13.6978 21.2 13.6978ZM17 0.572754C12.5443 0.572754 8.27117 2.34275 5.12056 5.49336C1.96995 8.64397 0.199951 12.9171 0.199951 17.3728C0.199951 21.8284 1.96995 26.1015 5.12056 29.2522C8.27117 32.4028 12.5443 34.1728 17 34.1728C19.2062 34.1728 21.3908 33.7382 23.429 32.8939C25.4673 32.0497 27.3193 30.8122 28.8794 29.2522C30.4394 27.6921 31.6769 25.8401 32.5211 23.8018C33.3654 21.7636 33.8 19.579 33.8 17.3728C33.8 15.1665 33.3654 12.9819 32.5211 10.9437C31.6769 8.9054 30.4394 7.05338 28.8794 5.49336C27.3193 3.93334 25.4673 2.69586 23.429 1.85158C21.3908 1.0073 19.2062 0.572754 17 0.572754ZM25.75 24.1785C25.75 25.2478 24.875 26.1228 23.8057 26.1228H10.1942C9.12495 26.1228 8.24995 25.2478 8.24995 24.1785V10.567C8.24995 9.49776 9.12495 8.62276 10.1942 8.62276H23.8057C24.875 8.62276 25.75 9.49776 25.75 10.567V24.1785Z" fill="white"/>
</svg>
