<svg width="213" height="113" viewBox="0 0 213 113" fill="none" xmlns="http://www.w3.org/2000/svg">
<path d="M56.9002 87.7039C56.9002 91.4611 56.1054 94.1344 54.5158 95.724C52.9985 97.2413 50.3612 98 46.6041 98H33.3817C31.2863 98 29.769 97.4942 28.8297 96.4827C27.9627 95.3989 27.3124 93.8093 26.8789 91.7139H43.1359C45.3758 91.7139 46.7847 91.2443 47.3627 90.305C47.9408 89.3657 48.2298 87.7761 48.2298 85.5363V67.9787C48.2298 65.7388 47.9046 64.1492 47.2543 63.21C46.6763 62.2707 45.159 61.801 42.7024 61.801H37.175C33.4178 61.801 30.7444 61.0423 29.1549 59.525C27.6375 57.9354 26.8789 55.2621 26.8789 51.5049V32.43C26.8789 28.6728 27.6375 26.0355 29.1549 24.5182C30.7444 22.9286 33.4178 22.1338 37.175 22.1338H50.0722C52.1676 22.1338 53.6488 22.6757 54.5158 23.7595C55.4551 24.7711 56.1415 26.3246 56.575 28.4199H40.6432C38.4033 28.4199 36.9944 28.8896 36.4163 29.8288C35.8383 30.7681 35.5493 32.3577 35.5493 34.5976V49.3373C35.5493 51.5771 35.8383 53.1667 36.4163 54.106C36.9944 55.0453 38.4033 55.515 40.6432 55.515H46.6041C50.3612 55.515 52.9985 56.3097 54.5158 57.8993C56.1054 59.4166 56.9002 62.0539 56.9002 65.8111V87.7039ZM73.9025 96.068C73.9025 96.8313 73.7593 97.356 73.4731 97.6422C73.2346 97.8807 72.7337 98 71.9705 98H68.1781V49.8438C68.1781 49.0806 68.2974 48.5797 68.5359 48.3412C68.8221 48.055 69.3468 47.9119 70.1101 47.9119H73.9025V96.068ZM76.0491 76.0328L83.9201 63.5823C84.3017 62.9145 84.6595 62.4374 84.9934 62.1512C85.3273 61.8173 85.8759 61.6503 86.6391 61.6503H91.1471L80.2708 77.8216L91.8626 98H86.9254C86.1621 98 85.6135 97.8569 85.2796 97.5707C84.9457 97.2368 84.5879 96.7359 84.2063 96.068L76.0491 80.6123V76.0328ZM116.983 93.8498V96.068C116.983 96.8313 116.863 97.356 116.625 97.6422C116.434 97.8807 115.957 98 115.194 98H104.389C101.909 98 100.144 97.4991 99.0941 96.4974C98.0923 95.4479 97.5915 93.6829 97.5915 91.2023V68.448C97.5915 65.9674 98.0923 64.2263 99.0941 63.2245C100.144 62.1751 101.909 61.6503 104.389 61.6503H112.26C114.741 61.6503 116.482 62.1751 117.484 63.2245C118.533 64.2263 119.058 65.9674 119.058 68.448V76.4621C119.058 78.9427 118.533 80.7077 117.484 81.7571C116.482 82.7589 114.741 83.2598 112.26 83.2598H107.967C107.204 83.2598 106.703 83.1405 106.464 82.902C106.273 82.6158 106.178 82.0911 106.178 81.3278V79.1096H110.328C111.807 79.1096 112.737 78.7995 113.119 78.1794C113.5 77.5593 113.691 76.5098 113.691 75.031V69.5213C113.691 68.0425 113.453 67.0646 112.976 66.5876C112.499 66.0628 111.521 65.8005 110.042 65.8005H106.965C105.391 65.8005 104.389 66.0867 103.96 66.6591C103.53 67.1839 103.316 68.2572 103.316 69.8791V89.7712C103.316 91.25 103.507 92.2995 103.888 92.9196C104.27 93.5398 105.2 93.8498 106.679 93.8498H116.983ZM140.101 61.6503C140.864 61.6503 141.341 61.7934 141.532 62.0796C141.771 62.3182 141.89 62.819 141.89 63.5823V65.8005H133.089V89.7712C133.089 91.25 133.279 92.2995 133.661 92.9196C134.043 93.5398 134.973 93.8498 136.452 93.8498H142.677C142.582 95.2332 142.295 96.2827 141.818 96.9982C141.389 97.6661 140.483 98 139.099 98H134.162C131.681 98 129.916 97.4991 128.867 96.4974C127.865 95.4479 127.364 93.6829 127.364 91.2023V55.282C127.364 54.5187 127.484 54.0178 127.722 53.7793C128.008 53.4931 128.533 53.35 129.296 53.35H133.089V61.6503H140.101ZM164.981 61.6503C165.744 61.6503 166.222 61.7934 166.412 62.0796C166.651 62.3182 166.77 62.819 166.77 63.5823V65.8005H157.969C156.49 65.8005 155.56 66.1106 155.178 66.7307C154.797 67.3508 154.606 68.4003 154.606 69.8791V89.7712C154.606 91.25 154.797 92.2995 155.178 92.9196C155.56 93.5398 156.49 93.8498 157.969 93.8498H166.77V96.068C166.77 96.8313 166.651 97.356 166.412 97.6422C166.222 97.8807 165.744 98 164.981 98H155.679C153.199 98 151.434 97.4991 150.384 96.4974C149.382 95.4479 148.881 93.6829 148.881 91.2023V68.448C148.881 65.9674 149.382 64.2263 150.384 63.2245C151.434 62.1751 153.199 61.6503 155.679 61.6503H164.981ZM198.145 96.068C198.145 96.8313 198.001 97.356 197.715 97.6422C197.477 97.8807 196.976 98 196.213 98H192.42V69.8791C192.42 68.4003 192.229 67.3508 191.848 66.7307C191.466 66.1106 190.536 65.8005 189.057 65.8005H180.256V96.068C180.256 96.8313 180.113 97.356 179.827 97.6422C179.588 97.8807 179.087 98 178.324 98H174.532V49.8438C174.532 49.0806 174.651 48.5797 174.889 48.3412C175.176 48.055 175.7 47.9119 176.463 47.9119H180.256V65.8005C180.542 64.4171 180.971 63.3915 181.544 62.7236C182.164 62.0081 183.166 61.6503 184.549 61.6503H191.347C193.827 61.6503 195.569 62.1751 196.57 63.2245C197.62 64.2263 198.145 65.9674 198.145 68.448V96.068Z" fill="white"/>
<rect x="190.528" y="85.0573" width="10.2069" height="15.3103" fill="black"/>
<path d="M189.542 96.063C189.542 99.4262 192.268 102.153 195.632 102.153C198.995 102.153 201.721 99.4262 201.721 96.063C201.721 92.6997 198.995 89.9732 195.632 89.9732C192.268 89.9732 189.542 92.6997 189.542 96.063Z" fill="url(#paint0_linear)" stroke="black" stroke-width="0.694631"/>
<path d="M3.34733 26.437C3.34733 29.8003 6.07379 32.5268 9.43705 32.5268C12.8003 32.5268 15.5268 29.8003 15.5268 26.437C15.5268 23.0738 12.8003 20.3473 9.43705 20.3473C6.07379 20.3473 3.34733 23.0738 3.34733 26.437Z" fill="url(#paint1_linear)" stroke="black" stroke-width="0.694631"/>
<rect x="-1.07813" y="1.07813" width="15.0938" height="58.2189" rx="7.5469" transform="matrix(-1 0 0 1 15.0938 37.7345)" stroke="white" stroke-width="2.15626"/>
<rect width="6.46877" height="36.6564" rx="3.23438" transform="matrix(-1 0 0 1 11.8594 49.5939)" fill="url(#paint2_linear)"/>
<defs>
<linearGradient id="paint0_linear" x1="195.632" y1="87.1259" x2="195.632" y2="100" gradientUnits="userSpaceOnUse">
<stop stop-color="#F53855"/>
<stop offset="1" stop-color="#FF8A00"/>
</linearGradient>
<linearGradient id="paint1_linear" x1="9.43705" y1="17.5" x2="9.43705" y2="30.3741" gradientUnits="userSpaceOnUse">
<stop stop-color="#F53855"/>
<stop offset="1" stop-color="#FF8A00"/>
</linearGradient>
<linearGradient id="paint2_linear" x1="3.23438" y1="0" x2="3.23438" y2="36.6564" gradientUnits="userSpaceOnUse">
<stop stop-color="#F53855"/>
<stop offset="1" stop-color="#FF8A00"/>
</linearGradient>
</defs>
</svg>
