<svg width="35" height="35" viewBox="0 0 35 35" fill="none" xmlns="http://www.w3.org/2000/svg">
<path d="M17.4 0.572754C8.12148 0.572754 0.599976 8.09426 0.599976 17.3728C0.599976 26.6513 8.12148 34.1728 17.4 34.1728C26.6785 34.1728 34.2 26.6513 34.2 17.3728C34.2 8.09426 26.6785 0.572754 17.4 0.572754ZM24.2337 14.3348C24.2407 14.4783 24.2425 14.6218 24.2425 14.7618C24.2425 19.1368 20.9157 24.1785 14.8292 24.1785C13.0307 24.1815 11.2697 23.665 9.75773 22.691C10.015 22.7225 10.2792 22.7348 10.547 22.7348C12.0975 22.7348 13.5237 22.208 14.656 21.319C13.966 21.3055 13.2974 21.077 12.7434 20.6654C12.1894 20.2538 11.7777 19.6797 11.5655 19.023C12.061 19.1172 12.5715 19.0975 13.0582 18.9653C12.3093 18.8138 11.6358 18.408 11.152 17.8167C10.6681 17.2253 10.4037 16.4848 10.4035 15.7208V15.6805C10.8497 15.9273 11.3607 16.0778 11.9032 16.0953C11.2011 15.6279 10.7041 14.9099 10.5138 14.0882C10.3235 13.2665 10.4543 12.4032 10.8795 11.6748C11.7106 12.6968 12.7472 13.5328 13.922 14.1288C15.0968 14.7248 16.3836 15.0674 17.6992 15.1345C17.532 14.4245 17.604 13.6792 17.904 13.0144C18.204 12.3496 18.7153 11.8025 19.3584 11.4582C20.0014 11.1139 20.7402 10.9918 21.4598 11.1107C22.1794 11.2296 22.8396 11.5829 23.3377 12.1158C24.0783 11.9692 24.7884 11.6976 25.4377 11.3125C25.1909 12.0792 24.6742 12.7303 23.9835 13.1448C24.6395 13.0657 25.28 12.8894 25.884 12.6215C25.4403 13.2863 24.8815 13.8665 24.2337 14.3348Z" fill="white"/>
</svg>
